<svg id="nclh" data-name="nclh" xmlns="http://www.w3.org/2000/svg" viewBox="0 0 300 156.47"><defs><style>.cls-1{fill:#fff;}</style></defs><title>nclh</title><path class="cls-1" d="M0,0V153s35.73-17.24,76.18-16.22c46.63,1.17,83.77,19.69,129.57,19.71,66.94,0,94.25-25.67,94.25-25.67V0ZM84.65,106.07h-13L38.06,61.71v44.36H23V36.28H37.07l32.51,43v-43H84.65Zm41.68,2.14c-20.14,0-35.08-16.09-35.08-36.44v-.21c0-20.15,14.65-36.65,35.65-36.65,12.9,0,20.63,4.46,27,10.93l-9.58,11.45c-5.28-5-10.66-8-17.5-8-11.52,0-19.83,9.92-19.83,22.06v.21c0,12.15,8.11,22.27,19.83,22.27,7.82,0,12.61-3.23,18-8.3l9.59,10C147.34,103.36,139.52,108.21,126.33,108.21ZM212,106.07H162.51V36.28h15.15V92.11H212Zm66,.38H263.16V79H234.72v27.47H219.88V36.67h14.84v27.5h28.44V36.67H278Z"/></svg>